<svg viewBox="0 0 17 18" fill="inherit" xmlns="http://www.w3.org/2000/svg">
<path d="M15.021 0.50737H1.80252C0.807379 0.50737 0 1.32251 0 2.32722V15.6728C0 16.6775 0.807379 17.4927 1.80252 17.4927H15.021C16.0162 17.4927 16.8235 16.6775 16.8235 15.6728V2.32722C16.8235 1.32251 16.0162 0.50737 15.021 0.50737ZM10.4133 15.0548C10.0979 15.1117 9.98146 14.9145 9.98146 14.7515C9.98146 14.5468 9.98897 13.5004 9.98897 12.6549C9.98897 12.0634 9.7937 11.6881 9.56463 11.4909C10.9541 11.3355 12.4186 11.1421 12.4186 8.71946C12.4186 8.02943 12.1745 7.68441 11.7765 7.24083C11.8403 7.0778 12.0544 6.40673 11.7126 5.53471C11.1907 5.37168 9.99648 6.21337 9.99648 6.21337C9.50079 6.07309 8.96379 6.00105 8.4343 6.00105C7.90481 6.00105 7.36781 6.07309 6.87211 6.21337C6.87211 6.21337 5.67794 5.37168 5.15596 5.53471C4.81423 6.40293 5.02453 7.07401 5.09212 7.24083C4.69407 7.68441 4.5063 8.02943 4.5063 8.71946C4.5063 11.1308 5.90701 11.3355 7.29646 11.4909C7.1162 11.654 6.95473 11.9345 6.8984 12.3364C6.54165 12.4994 5.62912 12.78 5.08461 11.8094C4.74288 11.2104 4.12702 11.1611 4.12702 11.1611C3.51867 11.1535 4.08571 11.5478 4.08571 11.5478C4.49128 11.7374 4.77668 12.4653 4.77668 12.4653C5.14094 13.5914 6.88338 13.2122 6.88338 13.2122C6.88338 13.7392 6.89089 14.5961 6.89089 14.7515C6.89089 14.9145 6.77823 15.1117 6.45903 15.0548C3.98057 14.2169 2.24564 11.836 2.24564 9.05309C2.24564 5.57263 4.88183 2.93005 8.32915 2.93005C11.7765 2.93005 14.5704 5.57263 14.5704 9.05309C14.5741 11.836 12.8918 14.2207 10.4133 15.0548ZM6.72941 12.7383C6.65806 12.7535 6.59047 12.7231 6.58296 12.6738C6.57545 12.617 6.62427 12.5677 6.69562 12.5525C6.76697 12.5449 6.83456 12.5753 6.84207 12.6246C6.85334 12.6738 6.80452 12.7231 6.72941 12.7383ZM6.37266 12.7042C6.37266 12.7535 6.31633 12.7952 6.24123 12.7952C6.15861 12.8028 6.10229 12.761 6.10229 12.7042C6.10229 12.6549 6.15861 12.6132 6.23372 12.6132C6.30507 12.6056 6.37266 12.6473 6.37266 12.7042ZM5.85819 12.6625C5.84317 12.7118 5.76807 12.7345 5.70423 12.7118C5.63288 12.6966 5.58406 12.6397 5.59908 12.5904C5.6141 12.5411 5.68921 12.5184 5.75305 12.5336C5.82815 12.5563 5.87697 12.6132 5.85819 12.6625ZM5.3963 12.4577C5.3625 12.4994 5.29115 12.4919 5.23482 12.435C5.17849 12.3857 5.16347 12.3137 5.20102 12.2795C5.23482 12.2378 5.30617 12.2454 5.3625 12.3023C5.41132 12.3516 5.43009 12.4274 5.3963 12.4577ZM5.05457 12.1127C5.02077 12.1355 4.95693 12.1127 4.91563 12.0559C4.87432 11.999 4.87432 11.9345 4.91563 11.908C4.95693 11.8739 5.02077 11.9004 5.05457 11.9573C5.09588 12.0141 5.09588 12.0824 5.05457 12.1127V12.1127ZM4.81048 11.745C4.77668 11.7791 4.72035 11.7601 4.67904 11.7222C4.63774 11.6729 4.63023 11.6161 4.66402 11.5895C4.69782 11.5554 4.75415 11.5743 4.79546 11.6123C4.83677 11.6616 4.84428 11.7184 4.81048 11.745ZM4.55888 11.4644C4.54386 11.4985 4.49504 11.5061 4.45373 11.4796C4.40491 11.4568 4.38238 11.4151 4.3974 11.381C4.41242 11.3582 4.45373 11.3469 4.50255 11.3658C4.55137 11.3924 4.5739 11.4341 4.55888 11.4644Z" fill="current"/>
</svg>
