<svg viewBox="0 0 18 18" fill="inherit" xmlns="http://www.w3.org/2000/svg">
<path d="M16.9062 0.40625H1.09375C0.713477 0.40625 0.40625 0.713477 0.40625 1.09375V16.9062C0.40625 17.2865 0.713477 17.5938 1.09375 17.5938H16.9062C17.2865 17.5938 17.5938 17.2865 17.5938 16.9062V1.09375C17.5938 0.713477 17.2865 0.40625 16.9062 0.40625ZM5.50449 15.0521H2.9543V6.84941H5.50449V15.0521ZM4.23047 5.72793C3.93812 5.72793 3.65234 5.64124 3.40927 5.47882C3.16619 5.3164 2.97674 5.08555 2.86486 4.81546C2.75298 4.54537 2.72371 4.24816 2.78075 3.96144C2.83778 3.67471 2.97856 3.41133 3.18528 3.20461C3.392 2.99789 3.65537 2.85712 3.9421 2.80008C4.22883 2.74305 4.52603 2.77232 4.79612 2.8842C5.06621 2.99607 5.29707 3.18553 5.45948 3.4286C5.6219 3.67168 5.70859 3.95746 5.70859 4.2498C5.70645 5.06621 5.04473 5.72793 4.23047 5.72793ZM15.0521 15.0521H12.5041V11.0625C12.5041 10.1107 12.4869 8.88828 11.1785 8.88828C9.85293 8.88828 9.64883 9.92383 9.64883 10.9937V15.0521H7.10293V6.84941H9.54785V7.9709H9.58223C9.92168 7.32637 10.7531 6.64531 11.9949 6.64531C14.5773 6.64531 15.0521 8.34473 15.0521 10.5533V15.0521V15.0521Z" fill="current"/>
</svg>
